<svg width="34" height="34" viewBox="0 0 34 34" fill="none" xmlns="http://www.w3.org/2000/svg">
<rect width="33.6" height="33.6" rx="2.8" fill="url(#paint0_linear_4168_35857)"/>
<path opacity="0.9" d="M24.6165 9.53125C24.2883 9.53125 24.0188 9.60156 23.8079 9.74219C23.5969 9.875 23.3899 10.0742 23.1868 10.3398C23.0227 10.5586 22.9407 11.1094 22.9407 11.9922V18.4609C22.9407 19.0078 22.9211 19.5312 22.8821 20.0312C22.843 20.5234 22.7688 20.9883 22.6594 21.4258C22.5579 21.8555 22.4172 22.2539 22.2375 22.6211C22.0579 22.9883 21.8274 23.3203 21.5461 23.6172C21.2571 23.9219 20.9563 24.1836 20.6438 24.4023C20.3313 24.6211 19.9875 24.8047 19.6125 24.9531C19.2375 25.0938 18.8196 25.1992 18.3586 25.2695C17.8977 25.3398 17.3743 25.375 16.7883 25.375C16.1165 25.375 15.5149 25.3242 14.9836 25.2227C14.4524 25.1289 13.9797 24.9961 13.5657 24.8242C13.1594 24.6445 12.8 24.4375 12.4875 24.2031C12.1829 23.9688 11.9172 23.7148 11.6907 23.4414C11.4563 23.168 11.2649 22.8555 11.1165 22.5039C10.9758 22.1523 10.8625 21.7617 10.7766 21.332C10.6907 20.8945 10.6321 20.4141 10.6008 19.8906C10.5696 19.3594 10.554 18.7773 10.554 18.1445V11.9102C10.554 11.418 10.5188 11.0156 10.4485 10.7031C10.386 10.3906 10.2883 10.1523 10.1555 9.98828C9.90552 9.68359 9.46802 9.53125 8.84302 9.53125H8.47974V9.10938H14.8899V9.53125H14.2922C13.9719 9.53125 13.7258 9.58203 13.554 9.68359C13.3899 9.77734 13.2415 9.93359 13.1086 10.1523C13.0149 10.3086 12.9407 10.5312 12.886 10.8203C12.8391 11.1016 12.8157 11.4648 12.8157 11.9102V18.8477C12.8157 19.168 12.8235 19.5195 12.8391 19.9023C12.8547 20.2773 12.8938 20.6562 12.9563 21.0391C13.0188 21.4141 13.1165 21.7852 13.2493 22.1523C13.3899 22.5195 13.5852 22.8516 13.8352 23.1484C14.1399 23.5234 14.5422 23.8242 15.0422 24.0508C15.5422 24.2695 16.179 24.3789 16.9524 24.3789C17.429 24.3789 17.8665 24.332 18.2649 24.2383C18.6711 24.1367 19.0344 24.0117 19.3547 23.8633C19.675 23.7148 19.9524 23.5586 20.1868 23.3945C20.429 23.2305 20.6204 23.082 20.761 22.9492C21.011 22.7148 21.2102 22.4258 21.3586 22.082C21.5071 21.7383 21.6165 21.3789 21.6868 21.0039C21.7649 20.6211 21.8157 20.2461 21.8391 19.8789C21.8625 19.5117 21.8743 19.1914 21.8743 18.918V11.9102C21.8743 11.418 21.8469 11.0156 21.7922 10.7031C21.7454 10.3906 21.6633 10.168 21.5461 10.0352C21.2336 9.69922 20.7805 9.53125 20.1868 9.53125H19.5891V9.10938H25.2258V9.53125H24.6165Z" fill="white"/>
<defs>
<linearGradient id="paint0_linear_4168_35857" x1="0" y1="0" x2="33.6" y2="33.6" gradientUnits="userSpaceOnUse">
<stop stop-color="#F97728"/>
<stop offset="0.995" stop-color="#F97728"/>
</linearGradient>
</defs>
</svg>
